<svg width="100" height="100" viewBox="0 0 100 100" fill="none" xmlns="http://www.w3.org/2000/svg">
<rect width="100" height="100" rx="14" fill="white"/>
<path d="M48.74 28.4V71H38.9V53.54H21.92V71H12.08V28.4H21.92V44.9H38.9V28.4H48.74ZM54.5042 63.62L76.2242 37.04H55.3442V28.4H88.0442V35.78L67.3442 62.36H88.2842V71H54.5042V63.62Z" fill="black"/>
<path d="M5.98693 70.1473L14.3602 69.7085L16.5303 61.6095L19.5351 69.4373L27.9084 68.9985L21.3922 74.2751L24.397 82.103L17.365 77.5363L10.8488 82.813L13.019 74.714L5.98693 70.1473Z" fill="black"/>
<circle cx="86.0577" cy="33.0192" r="11.0577" fill="black"/>
<circle cx="86.0577" cy="33.0192" r="11.0577" fill="black"/>
<circle cx="89.904" cy="31.0961" r="10.0961" fill="black"/>
<circle cx="89.904" cy="31.0961" r="10.0961" fill="white"/>
</svg>
